<?xml version="1.0" encoding="utf-8"?>
<!-- Generator: Adobe Illustrator 24.0.1, SVG Export Plug-In . SVG Version: 6.00 Build 0)  -->
<svg version="1.1" id="Layer_1" xmlns="http://www.w3.org/2000/svg" xmlns:xlink="http://www.w3.org/1999/xlink" x="0px" y="0px"
	 viewBox="0 0 2000 2000" style="enable-background:new 0 0 2000 2000;" xml:space="preserve">
<style type="text/css">
	.st0{fill:url(#SVGID_1_);}
	.st1{clip-path:url(#SVGID_4_);fill:url(#SVGID_5_);}
	.st2{clip-path:url(#SVGID_8_);fill:url(#SVGID_9_);}
	.st3{clip-path:url(#SVGID_12_);fill:url(#SVGID_13_);}
	.st4{clip-path:url(#SVGID_16_);fill:url(#SVGID_17_);}
</style>
<g>
	<g>
		<path d="M735.31,1029.64c-10.88,0-20.9-1.78-30.03-5.34c-9.14-3.56-17.1-8.63-23.89-15.22c-6.79-6.58-12.06-14.24-15.82-22.98
			c-3.76-8.73-5.64-18.41-5.64-29.03c0-10.61,1.88-20.29,5.64-29.03c3.76-8.73,9.07-16.39,15.92-22.98
			c6.85-6.58,14.85-11.66,23.99-15.22c9.14-3.56,19.15-5.34,30.03-5.34c11.56,0,22.1,1.98,31.65,5.95
			c9.54,3.97,17.6,9.85,24.19,17.64l-16.93,15.92c-5.24-5.51-11.02-9.64-17.34-12.4c-6.32-2.75-13.1-4.13-20.36-4.13
			c-7.39,0-14.15,1.21-20.26,3.63c-6.12,2.42-11.42,5.85-15.92,10.28c-4.5,4.43-8.03,9.68-10.58,15.72
			c-2.55,6.05-3.83,12.7-3.83,19.96c0,7.26,1.28,13.91,3.83,19.96c2.55,6.05,6.08,11.29,10.58,15.72c4.5,4.43,9.81,7.86,15.92,10.28
			c6.11,2.42,12.87,3.63,20.26,3.63c7.26,0,14.04-1.38,20.36-4.13c6.31-2.75,12.09-6.96,17.34-12.6l16.93,15.92
			c-6.59,7.8-14.65,13.71-24.19,17.74C757.62,1027.62,747,1029.64,735.31,1029.64z"/>
		<path d="M875.2,918.57c8.73,0,16.43,1.68,23.08,5.04c6.65,3.36,11.96,8.54,15.92,15.52c3.96,6.99,5.95,15.92,5.95,26.81v61.68
			h-25.2v-58.46c0-9.54-2.22-16.66-6.65-21.37c-4.44-4.7-10.75-7.05-18.95-7.05c-5.92,0-11.16,1.21-15.72,3.63
			c-4.57,2.42-8.1,6.02-10.58,10.79c-2.49,4.77-3.73,10.78-3.73,18.04v54.42h-25V878.05h25v71.16l-5.24-9.07
			c3.63-6.85,9.04-12.16,16.23-15.92C857.49,920.45,865.79,918.57,875.2,918.57z"/>
		<path d="M1002.8,1029.03c-11.96,0-22.41-2.38-31.35-7.16c-8.94-4.77-15.86-11.29-20.76-19.55c-4.91-8.26-7.36-17.77-7.36-28.52
			c0-10.75,2.38-20.26,7.16-28.52c4.77-8.26,11.35-14.78,19.75-19.55c8.4-4.77,17.97-7.16,28.72-7.16c10.48,0,19.82,2.32,28.02,6.95
			c8.2,4.64,14.64,11.12,19.35,19.45c4.7,8.33,7.05,18.21,7.05,29.63c0,0.94-0.04,2.12-0.1,3.53c-0.07,1.41-0.17,2.65-0.3,3.73
			h-89.7v-16.73h76.4l-10.08,5.24c0.13-6.05-1.11-11.46-3.73-16.23c-2.62-4.77-6.22-8.47-10.78-11.09
			c-4.57-2.62-9.95-3.93-16.13-3.93c-6.05,0-11.46,1.31-16.23,3.93c-4.77,2.62-8.43,6.35-10.99,11.19
			c-2.55,4.84-3.83,10.42-3.83,16.73v4.03c0,6.45,1.44,12.16,4.33,17.13c2.89,4.97,7.02,8.84,12.4,11.59
			c5.37,2.76,11.62,4.13,18.75,4.13c6.05,0,11.49-1.01,16.33-3.02s9.14-4.97,12.9-8.87l13.71,15.72
			c-4.97,5.64-11.12,9.95-18.45,12.9C1020.57,1027.56,1012.2,1029.03,1002.8,1029.03z"/>
		<path d="M1126.97,1029.03c-11.29,0-21.33-2.38-30.14-7.16c-8.8-4.77-15.69-11.29-20.66-19.55c-4.97-8.26-7.46-17.77-7.46-28.52
			c0-10.89,2.48-20.43,7.46-28.62c4.97-8.2,11.86-14.68,20.66-19.45c8.8-4.77,18.85-7.16,30.14-7.16c10.35,0,19.55,2.15,27.62,6.45
			c8.06,4.3,14.11,10.55,18.14,18.75l-19.15,11.29c-3.23-4.97-7.16-8.7-11.79-11.19c-4.64-2.48-9.64-3.73-15.02-3.73
			c-6.18,0-11.76,1.38-16.73,4.13c-4.97,2.76-8.87,6.65-11.69,11.69c-2.82,5.04-4.23,10.99-4.23,17.84s1.41,12.83,4.23,17.94
			c2.82,5.11,6.72,9.04,11.69,11.79c4.97,2.76,10.55,4.13,16.73,4.13c5.37,0,10.38-1.24,15.02-3.73c4.64-2.48,8.57-6.28,11.79-11.39
			l19.15,11.29c-4.03,8.06-10.08,14.28-18.14,18.65C1146.52,1026.85,1137.31,1029.03,1126.97,1029.03z"/>
		<path d="M1194.9,1027.62V878.05h25v149.57H1194.9z M1215.25,1003.64l0.6-31.65l56.24-52.01h30.24l-47.77,47.77l-13.5,11.29
			L1215.25,1003.64z M1276.13,1027.62l-39.71-48.58l15.92-20.16l54.22,68.74H1276.13z"/>
		<path d="M1351.52,1027.62h-26.2v-141.1h103v22.17h-76.8V1027.62z M1349.5,951.63h70.15v21.77h-70.15V951.63z"/>
		<path d="M1464,902.24c-4.71,0-8.57-1.48-11.59-4.43c-3.02-2.95-4.54-6.58-4.54-10.88c0-4.03,1.51-7.52,4.54-10.48
			c3.02-2.95,6.88-4.43,11.59-4.43c4.7,0,8.57,1.38,11.59,4.13c3.02,2.76,4.54,6.28,4.54,10.58c0,4.3-1.48,7.96-4.43,10.99
			C1472.73,900.73,1468.83,902.24,1464,902.24z M1451.5,1027.62V919.98h25v107.64H1451.5z"/>
		<path d="M1509.75,1027.62V919.98h23.99v29.63l-2.82-8.67c3.09-7.26,8.13-12.8,15.12-16.63c6.99-3.83,15.52-5.74,25.6-5.74v23.99
			c-0.94-0.13-1.88-0.23-2.82-0.3c-0.94-0.07-1.81-0.1-2.62-0.1c-9.68,0-17.34,2.76-22.98,8.26c-5.64,5.51-8.47,13.91-8.47,25.2
			v52.01H1509.75z"/>
		<path d="M1627.67,1029.03c-9.14,0-17.81-1.18-26-3.53c-8.2-2.35-14.78-5.21-19.75-8.57l9.67-19.15
			c4.84,3.09,10.61,5.61,17.34,7.56c6.72,1.95,13.51,2.92,20.36,2.92c7.79,0,13.47-1.04,17.03-3.12c3.56-2.08,5.34-4.94,5.34-8.57
			c0-2.95-1.21-5.21-3.63-6.75c-2.42-1.54-5.58-2.72-9.47-3.53c-3.9-0.81-8.23-1.54-13-2.22c-4.77-0.67-9.54-1.58-14.31-2.72
			c-4.77-1.14-9.11-2.82-13-5.04c-3.9-2.22-7.05-5.21-9.47-8.97c-2.42-3.76-3.63-8.8-3.63-15.12c0-6.72,1.95-12.6,5.85-17.64
			c3.9-5.04,9.37-8.97,16.43-11.79c7.05-2.82,15.42-4.23,25.1-4.23c7.12,0,14.41,0.84,21.87,2.52c7.46,1.68,13.67,4,18.65,6.95
			l-9.88,19.15c-4.97-2.95-10.08-5-15.32-6.15c-5.24-1.14-10.42-1.71-15.52-1.71c-7.53,0-13.17,1.11-16.93,3.33
			c-3.76,2.22-5.64,5.07-5.64,8.57c0,3.22,1.21,5.64,3.63,7.26c2.42,1.61,5.58,2.86,9.47,3.73c3.9,0.88,8.23,1.68,13,2.42
			c4.77,0.74,9.51,1.68,14.21,2.82c4.7,1.14,9.04,2.76,13,4.84c3.96,2.08,7.16,5.01,9.57,8.77c2.42,3.76,3.63,8.67,3.63,14.71
			c0,6.85-1.98,12.73-5.95,17.64c-3.97,4.91-9.54,8.74-16.73,11.49C1646.38,1027.65,1637.75,1029.03,1627.67,1029.03z"/>
		<path d="M1683.71,940.95v-20.16h71.76v20.16H1683.71z M1738.54,1029.03c-11.83,0-20.96-3.06-27.41-9.17
			c-6.45-6.11-9.68-15.08-9.68-26.91V896.2h25v95.95c0,5.11,1.34,9.07,4.03,11.89c2.69,2.82,6.45,4.23,11.29,4.23
			c5.51,0,10.08-1.48,13.71-4.43l7.26,17.94c-3.09,2.42-6.79,4.23-11.09,5.44C1747.34,1028.43,1742.97,1029.03,1738.54,1029.03z"/>
	</g>
</g>
<g>
	<g>
		<path d="M693.59,1138.21c-3.85,0-7.41-0.59-10.68-1.77c-3.27-1.18-6.09-2.84-8.48-4.99c-2.39-2.14-4.25-4.66-5.59-7.56
			c-1.34-2.9-2.01-6.07-2.01-9.5c0-3.44,0.67-6.6,2.01-9.5c1.34-2.9,3.22-5.42,5.63-7.56s5.25-3.8,8.52-4.99
			c3.27-1.18,6.82-1.77,10.68-1.77c3.7,0,7.19,0.57,10.46,1.71c3.27,1.14,6.02,2.84,8.26,5.12l-3.44,3.15
			c-2.1-1.96-4.41-3.38-6.95-4.25c-2.54-0.87-5.27-1.3-8.19-1.3c-3.07,0-5.92,0.48-8.56,1.44c-2.63,0.96-4.92,2.32-6.87,4.08
			c-1.95,1.76-3.47,3.82-4.57,6.16c-1.1,2.34-1.65,4.92-1.65,7.73c0,2.81,0.55,5.39,1.65,7.73c1.1,2.34,2.62,4.4,4.57,6.16
			c1.95,1.76,4.24,3.12,6.87,4.08c2.63,0.96,5.48,1.44,8.56,1.44c2.93,0,5.65-0.45,8.19-1.34c2.53-0.89,4.85-2.32,6.95-4.28
			l3.44,3.15c-2.24,2.28-5,3.99-8.26,5.15C700.85,1137.63,697.34,1138.21,693.59,1138.21z"/>
		<path d="M723.93,1137.81v-46.85h5.41v42.57h28.67v4.28H723.93z"/>
		<path d="M789.38,1138.21c-3.85,0-7.42-0.59-10.71-1.77c-3.29-1.18-6.14-2.86-8.56-5.02s-4.29-4.69-5.63-7.56
			c-1.34-2.88-2.01-6.04-2.01-9.47c0-3.44,0.67-6.59,2.01-9.47c1.34-2.88,3.22-5.4,5.63-7.56c2.41-2.16,5.25-3.84,8.52-5.02
			c3.27-1.18,6.85-1.77,10.75-1.77c3.85,0,7.41,0.59,10.68,1.77c3.27,1.18,6.11,2.84,8.52,4.99c2.41,2.14,4.29,4.66,5.63,7.56
			c1.34,2.9,2.01,6.07,2.01,9.5c0,3.44-0.67,6.6-2.01,9.5c-1.34,2.9-3.22,5.42-5.63,7.56c-2.41,2.14-5.25,3.8-8.52,4.99
			C796.79,1137.62,793.23,1138.21,789.38,1138.21z M789.38,1133.79c3.07,0,5.91-0.48,8.52-1.44c2.61-0.96,4.87-2.32,6.8-4.08
			c1.93-1.76,3.42-3.82,4.5-6.16c1.07-2.34,1.61-4.92,1.61-7.73c0-2.81-0.54-5.39-1.61-7.73c-1.07-2.34-2.57-4.39-4.5-6.16
			c-1.93-1.76-4.19-3.12-6.8-4.08c-2.61-0.96-5.45-1.44-8.52-1.44s-5.92,0.48-8.56,1.44c-2.63,0.96-4.92,2.32-6.87,4.08
			c-1.95,1.76-3.46,3.82-4.53,6.16c-1.07,2.34-1.61,4.92-1.61,7.73c0,2.77,0.54,5.33,1.61,7.7c1.07,2.37,2.58,4.43,4.53,6.19
			c1.95,1.76,4.24,3.12,6.87,4.08C783.46,1133.31,786.31,1133.79,789.38,1133.79z"/>
		<path d="M848.98,1138.21c-6.53,0-11.68-1.72-15.43-5.15c-3.75-3.44-5.63-8.52-5.63-15.26v-26.84h5.41v26.64
			c0,5.53,1.36,9.62,4.1,12.25c2.73,2.63,6.58,3.95,11.55,3.95c5.02,0,8.9-1.32,11.63-3.95c2.73-2.63,4.1-6.72,4.1-12.25v-26.64
			h5.27v26.84c0,6.74-1.86,11.83-5.59,15.26C860.64,1136.49,855.51,1138.21,848.98,1138.21z"/>
		<path d="M886.27,1137.81v-46.85h20.84c5.46,0,10.25,0.99,14.37,2.98c4.12,1.99,7.32,4.74,9.62,8.27
			c2.29,3.53,3.44,7.59,3.44,12.18c0,4.6-1.15,8.66-3.44,12.18c-2.29,3.53-5.5,6.28-9.62,8.27c-4.12,1.99-8.91,2.98-14.37,2.98
			H886.27z M891.69,1133.53h15.14c4.53,0,8.47-0.81,11.81-2.44c3.34-1.63,5.93-3.88,7.79-6.76c1.85-2.88,2.78-6.19,2.78-9.94
			c0-3.79-0.93-7.12-2.78-9.97c-1.85-2.86-4.45-5.1-7.79-6.73c-3.34-1.63-7.28-2.44-11.81-2.44h-15.14V1133.53z"/>
		<path d="M999.11,1138.21c-3.8,0-7.45-0.57-10.93-1.71c-3.49-1.14-6.18-2.6-8.08-4.38l2.12-3.82c1.8,1.61,4.23,2.96,7.28,4.05
			c3.05,1.09,6.25,1.64,9.62,1.64c3.22,0,5.84-0.37,7.86-1.1c2.02-0.74,3.51-1.73,4.46-2.98c0.95-1.25,1.43-2.63,1.43-4.15
			c0-1.83-0.57-3.3-1.72-4.42c-1.15-1.11-2.65-2-4.5-2.64c-1.85-0.65-3.9-1.21-6.14-1.71c-2.24-0.49-4.49-1.01-6.73-1.57
			c-2.24-0.56-4.3-1.31-6.18-2.24c-1.88-0.94-3.39-2.18-4.53-3.71c-1.15-1.54-1.72-3.56-1.72-6.06c0-2.32,0.67-4.45,2.01-6.39
			c1.34-1.94,3.4-3.5,6.18-4.68c2.78-1.18,6.34-1.77,10.68-1.77c2.88,0,5.73,0.37,8.56,1.1c2.83,0.74,5.27,1.75,7.31,3.05
			l-1.83,3.95c-2.19-1.34-4.52-2.32-6.98-2.95c-2.46-0.62-4.84-0.94-7.13-0.94c-3.07,0-5.61,0.38-7.61,1.14
			c-2,0.76-3.47,1.77-4.42,3.04s-1.43,2.71-1.43,4.32c0,1.83,0.57,3.3,1.72,4.42c1.15,1.12,2.66,1.99,4.53,2.61
			c1.88,0.63,3.94,1.18,6.18,1.67c2.24,0.49,4.47,1.03,6.69,1.61c2.22,0.58,4.26,1.33,6.14,2.24c1.88,0.92,3.39,2.13,4.53,3.65
			c1.14,1.52,1.72,3.5,1.72,5.96c0,2.28-0.68,4.38-2.05,6.33c-1.37,1.94-3.45,3.5-6.25,4.69
			C1007.09,1137.62,1003.5,1138.21,999.11,1138.21z"/>
		<path d="M1050.59,1138.21c-6.53,0-11.68-1.72-15.43-5.15c-3.75-3.44-5.63-8.52-5.63-15.26v-26.84h5.41v26.64
			c0,5.53,1.36,9.62,4.09,12.25c2.73,2.63,6.58,3.95,11.55,3.95c5.02,0,8.9-1.32,11.63-3.95c2.73-2.63,4.09-6.72,4.09-12.25v-26.64
			h5.27v26.84c0,6.74-1.87,11.83-5.59,15.26C1062.25,1136.49,1057.12,1138.21,1050.59,1138.21z"/>
		<path d="M1087.88,1137.81v-46.85h19.16c4.34,0,8.07,0.64,11.19,1.91c3.12,1.27,5.52,3.1,7.2,5.49c1.68,2.39,2.52,5.28,2.52,8.67
			c0,3.3-0.84,6.15-2.52,8.53c-1.68,2.39-4.08,4.23-7.2,5.52c-3.12,1.29-6.85,1.94-11.19,1.94h-16.16l2.41-2.34v17.13H1087.88z
			 M1093.29,1121.08l-2.41-2.41h16.01c5.12,0,9.01-1.01,11.66-3.05c2.66-2.03,3.99-4.9,3.99-8.6c0-3.75-1.33-6.65-3.99-8.7
			c-2.66-2.05-6.54-3.08-11.66-3.08h-16.01l2.41-2.34V1121.08z"/>
		<path d="M1140.39,1137.81v-46.85h19.16c4.34,0,8.07,0.64,11.19,1.91c3.12,1.27,5.52,3.1,7.2,5.49c1.68,2.39,2.52,5.28,2.52,8.67
			c0,3.3-0.84,6.15-2.52,8.53c-1.68,2.39-4.08,4.23-7.2,5.52c-3.12,1.29-6.85,1.94-11.19,1.94h-16.16l2.41-2.34v17.13H1140.39z
			 M1145.8,1121.08l-2.41-2.41h16.01c5.12,0,9.01-1.01,11.66-3.05c2.66-2.03,3.99-4.9,3.99-8.6c0-3.75-1.33-6.65-3.99-8.7
			c-2.66-2.05-6.54-3.08-11.66-3.08h-16.01l2.41-2.34V1121.08z"/>
		<path d="M1192.89,1137.81v-46.85h5.41v42.57h28.67v4.28H1192.89z"/>
		<path d="M1235.96,1137.81v-46.85h5.41v46.85H1235.96z"/>
		<path d="M1263.46,1133.53h30.79v4.28h-36.2v-46.85h35.1v4.28h-29.69V1133.53z M1262.87,1111.91h27.06v4.22h-27.06V1111.91z"/>
		<path d="M1306.97,1137.81v-46.85h19.16c4.34,0,8.07,0.64,11.19,1.91c3.12,1.27,5.52,3.1,7.2,5.49c1.68,2.39,2.52,5.28,2.52,8.67
			c0,3.3-0.84,6.15-2.52,8.53c-1.68,2.39-4.08,4.22-7.2,5.49c-3.12,1.27-6.85,1.91-11.19,1.91h-16.16l2.41-2.28v17.13H1306.97z
			 M1312.38,1121.08l-2.41-2.34h16.01c5.12,0,9.01-1.03,11.66-3.08c2.66-2.05,3.99-4.93,3.99-8.63c0-3.75-1.33-6.65-3.99-8.7
			c-2.66-2.05-6.54-3.08-11.66-3.08h-16.01l2.41-2.34V1121.08z M1341.92,1137.81l-13.16-17h5.85l13.24,17H1341.92z"/>
		<path d="M1412.27,1138.21c-3.8,0-7.45-0.57-10.93-1.71c-3.49-1.14-6.18-2.6-8.08-4.38l2.12-3.82c1.8,1.61,4.23,2.96,7.28,4.05
			c3.05,1.09,6.25,1.64,9.62,1.64c3.22,0,5.84-0.37,7.86-1.1c2.02-0.74,3.51-1.73,4.46-2.98c0.95-1.25,1.43-2.63,1.43-4.15
			c0-1.83-0.57-3.3-1.72-4.42c-1.15-1.11-2.65-2-4.5-2.64c-1.85-0.65-3.9-1.21-6.14-1.71c-2.24-0.49-4.49-1.01-6.73-1.57
			c-2.24-0.56-4.3-1.31-6.18-2.24c-1.88-0.94-3.39-2.18-4.53-3.71c-1.15-1.54-1.72-3.56-1.72-6.06c0-2.32,0.67-4.45,2.01-6.39
			c1.34-1.94,3.4-3.5,6.18-4.68c2.78-1.18,6.34-1.77,10.68-1.77c2.88,0,5.73,0.37,8.56,1.1s5.27,1.75,7.31,3.05l-1.83,3.95
			c-2.19-1.34-4.52-2.32-6.98-2.95c-2.46-0.62-4.84-0.94-7.13-0.94c-3.07,0-5.61,0.38-7.61,1.14s-3.47,1.77-4.42,3.04
			c-0.95,1.27-1.43,2.71-1.43,4.32c0,1.83,0.57,3.3,1.72,4.42c1.14,1.12,2.66,1.99,4.53,2.61c1.88,0.63,3.94,1.18,6.18,1.67
			c2.24,0.49,4.47,1.03,6.69,1.61c2.22,0.58,4.26,1.33,6.14,2.24c1.88,0.92,3.39,2.13,4.53,3.65c1.15,1.52,1.72,3.5,1.72,5.96
			c0,2.28-0.68,4.38-2.05,6.33c-1.37,1.94-3.45,3.5-6.25,4.69C1420.25,1137.62,1416.66,1138.21,1412.27,1138.21z"/>
		<path d="M1448.54,1133.53h30.79v4.28h-36.2v-46.85h35.1v4.28h-29.69V1133.53z M1447.96,1111.91h27.06v4.22h-27.06V1111.91z"/>
		<path d="M1514.28,1138.21c-3.85,0-7.41-0.59-10.68-1.77c-3.27-1.18-6.09-2.84-8.48-4.99c-2.39-2.14-4.25-4.66-5.59-7.56
			c-1.34-2.9-2.01-6.07-2.01-9.5c0-3.44,0.67-6.6,2.01-9.5c1.34-2.9,3.22-5.42,5.63-7.56s5.25-3.8,8.52-4.99
			c3.27-1.18,6.83-1.77,10.68-1.77c3.7,0,7.19,0.57,10.46,1.71c3.27,1.14,6.02,2.84,8.26,5.12l-3.44,3.15
			c-2.1-1.96-4.41-3.38-6.95-4.25c-2.54-0.87-5.26-1.3-8.19-1.3c-3.07,0-5.92,0.48-8.56,1.44c-2.63,0.96-4.92,2.32-6.87,4.08
			c-1.95,1.76-3.47,3.82-4.57,6.16s-1.65,4.92-1.65,7.73c0,2.81,0.55,5.39,1.65,7.73c1.1,2.34,2.62,4.4,4.57,6.16
			c1.95,1.76,4.24,3.12,6.87,4.08c2.63,0.96,5.48,1.44,8.56,1.44c2.93,0,5.66-0.45,8.19-1.34c2.53-0.89,4.85-2.32,6.95-4.28
			l3.44,3.15c-2.24,2.28-5,3.99-8.26,5.15C1521.54,1137.63,1518.03,1138.21,1514.28,1138.21z"/>
		<path d="M1565.25,1138.21c-6.53,0-11.68-1.72-15.43-5.15c-3.75-3.44-5.63-8.52-5.63-15.26v-26.84h5.41v26.64
			c0,5.53,1.36,9.62,4.09,12.25c2.73,2.63,6.58,3.95,11.55,3.95c5.02,0,8.9-1.32,11.63-3.95c2.73-2.63,4.09-6.72,4.09-12.25v-26.64
			h5.27v26.84c0,6.74-1.87,11.83-5.59,15.26C1576.91,1136.49,1571.78,1138.21,1565.25,1138.21z"/>
		<path d="M1602.55,1137.81v-46.85h19.16c4.34,0,8.07,0.64,11.19,1.91c3.12,1.27,5.52,3.1,7.2,5.49c1.68,2.39,2.52,5.28,2.52,8.67
			c0,3.3-0.84,6.15-2.52,8.53c-1.68,2.39-4.08,4.22-7.2,5.49c-3.12,1.27-6.85,1.91-11.19,1.91h-16.16l2.41-2.28v17.13H1602.55z
			 M1607.96,1121.08l-2.41-2.34h16.01c5.12,0,9.01-1.03,11.66-3.08c2.66-2.05,3.99-4.93,3.99-8.63c0-3.75-1.33-6.65-3.99-8.7
			c-2.66-2.05-6.54-3.08-11.66-3.08h-16.01l2.41-2.34V1121.08z M1637.5,1137.81l-13.16-17h5.85l13.24,17H1637.5z"/>
		<path d="M1655.42,1137.81v-46.85h5.41v46.85H1655.42z"/>
		<path d="M1687.45,1137.81v-42.57h-17.99v-4.28h41.39v4.28h-17.99v42.57H1687.45z"/>
		<path d="M1731.69,1137.81v-17.4l1.24,3.08l-21.72-32.53h5.78l19.09,28.58H1733l19.09-28.58h5.41l-21.72,32.53l1.24-3.08v17.4
			H1731.69z"/>
	</g>
</g>
<linearGradient id="SVGID_1_" gradientUnits="userSpaceOnUse" x1="422.8889" y1="982.2949" x2="453.7436" y2="982.2949">
	<stop  offset="0" style="stop-color:#E90DCA"/>
	<stop  offset="1" style="stop-color:#1536F1"/>
</linearGradient>
<path class="st0" d="M449.78,979.95c-3.6,3.59-4.52,7.43-4.25,12.12c0.2,3.51,0.17,7.07-0.06,10.58c-0.26,4.01-3.59,7.15-7.27,6.84
	c-3.99-0.34-6.55-2.61-6.93-6.71c-0.25-2.7-0.24-5.46-0.08-8.18c0.35-5.9-0.3-11.03-5.02-15.72c-4.14-4.11-4.08-9.98-1.4-15.31
	c2.75-5.47,7.33-8.32,13.58-8.49c6.32,0.15,11.04,3.06,13.74,8.8C454.81,969.65,454.27,975.47,449.78,979.95z"/>
<g>
	<defs>
		<path id="SVGID_2_" d="M451.32,882.45c43.84,0.96,87.51,6.77,130.07,17.32l3.15,0.78l-0.9,3.12
			c-10.59,36.74-24.72,72.43-42.16,106.46l-1.5,2.92l-22.37-12.91l1.35-2.64c12.83-25.14,23.77-51.22,32.73-77.98
			c-40.51-8.24-81.86-12.04-123.2-11.32l-3.18,0.06v-39.11c-50.54,1.08-100.83,8.47-149.54,21.99
			c11.27,43.6,27.38,85.88,47.98,125.93l1.36,2.65l-22.37,12.92l-1.5-2.91c-25.06-48.54-43.77-100.21-55.59-153.54l-0.62-2.79
			l2.73-0.86c64.78-20.44,132.56-30.31,200.47-29.25l3.08,0.05V882.45z M520.6,1047.5c-22.75,37.48-49.62,72.4-80.04,103.98
			l-2.25,2.34l-2.25-2.34c-26.53-27.54-50.36-57.63-71.12-89.75l-1.78-2.76l22.37-12.91l1.61,2.49
			c15.36,23.68,32.47,46.2,51.17,67.34c27.39-30.96,51.36-64.88,71.4-101.03l1.54-2.78l33.87,19.55
			c24.33-44.31,43.08-91.55,55.72-140.5c-43.4-12.05-88.07-19.23-133.06-21.41l-2.97-0.14v-25.83l3.27,0.15
			c54.57,2.57,108.67,12.2,160.77,28.63l2.73,0.86l-0.62,2.8c-14.69,66.32-40.03,129.95-74.91,188.24l-1.58,2.64L520.6,1047.5z
			 M324.94,919.52c13.12,39.2,30.51,76.91,51.79,112.35l1.64,2.73l-33.87,19.55c26.2,43.23,57.75,83.09,93.81,118.51
			c32.13-31.56,60.69-66.66,85.07-104.52l1.61-2.5l22.37,12.92l-1.77,2.76c-29.51,45.97-64.9,88.01-105.18,124.91l-2.11,1.93
			l-2.11-1.93c-50.09-45.89-92.53-99.64-125.57-158.99l-1.5-2.69l33.88-19.56c-21.09-38.44-37.89-79.17-50.03-121.3l-0.9-3.12
			l3.15-0.78c37.12-9.2,75.09-14.8,113.28-16.72l3.28-0.16v25.83l-2.96,0.15C380.66,910.33,352.6,913.89,324.94,919.52z
			 M378.73,950.57c15.91,36.51,35.92,71.17,59.58,103.2c23.66-32.03,43.67-66.69,59.58-103.2
			C458.33,946.1,418.31,946.1,378.73,950.57z M346.32,929.08c60.86-10.22,123.13-10.22,183.99,0l3.73,0.63l-1.32,3.55
			C511.14,991.07,480,1045,440.73,1092.59l-2.41,2.92l-2.41-2.92c-39.28-47.59-70.41-101.52-91.99-159.34l-1.32-3.55L346.32,929.08z
			"/>
	</defs>
	<linearGradient id="SVGID_3_" gradientUnits="userSpaceOnUse" x1="245.0403" y1="1025.674" x2="631.5922" y2="1025.674">
		<stop  offset="0" style="stop-color:#E90DCA"/>
		<stop  offset="1" style="stop-color:#1536F1"/>
	</linearGradient>
	<use xlink:href="#SVGID_2_"  style="overflow:visible;fill-rule:evenodd;clip-rule:evenodd;fill:url(#SVGID_3_);"/>
	<clipPath id="SVGID_4_">
		<use xlink:href="#SVGID_2_"  style="overflow:visible;"/>
	</clipPath>
	<linearGradient id="SVGID_5_" gradientUnits="userSpaceOnUse" x1="438.3162" y1="1447.3612" x2="438.3162" y2="361.027">
		<stop  offset="0" style="stop-color:#E90DCA"/>
		<stop  offset="1" style="stop-color:#1536F1"/>
	</linearGradient>
	<rect x="245.04" y="842.21" class="st1" width="386.55" height="365.94"/>
</g>
<g>
	<defs>
		<path id="SVGID_6_" d="M383.48,1171.71c-80.36-23.66-139.03-97.97-139.03-185.99c0-15.5,1.83-30.56,5.26-45.01
			c6.1,18.6,13.05,36.92,20.81,54.89c3.18,54.74,32.54,102.44,75.76,130.78C357.98,1142.05,370.4,1157.17,383.48,1171.71
			 M626.92,940.7c3.44,14.45,5.27,29.52,5.27,45.02c0,88.02-58.67,162.33-139.03,185.99c13.08-14.54,25.51-29.67,37.22-45.34
			c43.21-28.35,72.57-76.06,75.73-130.81C613.87,977.6,620.82,959.29,626.92,940.7z M438.32,791.85
			c50.92,0,97.24,19.64,131.83,51.74c-19.56-4.07-39.3-7.24-59.16-9.48c-22-10.56-46.64-16.48-72.67-16.48
			c-26.05,0-50.72,5.93-72.72,16.5c-19.84,2.25-39.57,5.41-59.12,9.47C341.06,811.49,387.39,791.85,438.32,791.85z"/>
	</defs>
	<linearGradient id="SVGID_7_" gradientUnits="userSpaceOnUse" x1="244.4457" y1="981.7822" x2="632.1868" y2="981.7822">
		<stop  offset="0" style="stop-color:#E90DCA"/>
		<stop  offset="1" style="stop-color:#1536F1"/>
	</linearGradient>
	<use xlink:href="#SVGID_6_"  style="overflow:visible;fill-rule:evenodd;clip-rule:evenodd;fill:url(#SVGID_7_);"/>
	<clipPath id="SVGID_8_">
		<use xlink:href="#SVGID_6_"  style="overflow:visible;"/>
	</clipPath>
	<linearGradient id="SVGID_9_" gradientUnits="userSpaceOnUse" x1="438.3162" y1="1447.3612" x2="438.3162" y2="361.0242">
		<stop  offset="0" style="stop-color:#E90DCA"/>
		<stop  offset="1" style="stop-color:#1536F1"/>
	</linearGradient>
	<rect x="244.45" y="791.85" class="st2" width="387.74" height="379.86"/>
</g>
<g>
	<defs>
		<path id="SVGID_10_" d="M268.06,995.04c-7.67-4.77-14.86-9.85-21.5-15.23c0.32-10.57,1.51-21.09,3.56-31.46
			C255.5,964.13,261.49,979.71,268.06,995.04 M630.07,979.81c-6.65,5.38-13.85,10.47-21.53,15.25
			c6.58-15.34,12.58-30.92,17.96-46.72C628.56,958.71,629.75,969.23,630.07,979.81z M511.56,832.13
			c17.32,1.97,34.56,4.64,51.66,7.99c-34.79-29.88-78.83-46.24-124.9-46.24c-46.08,0-90.13,16.36-124.92,46.26
			c17.09-3.35,34.32-6.01,51.63-7.98c22.92-10.96,47.89-16.56,73.29-16.56C463.7,815.6,488.65,821.19,511.56,832.13z"/>
	</defs>
	<linearGradient id="SVGID_11_" gradientUnits="userSpaceOnUse" x1="246.564" y1="894.4655" x2="630.0685" y2="894.4655">
		<stop  offset="0" style="stop-color:#E90DCA"/>
		<stop  offset="1" style="stop-color:#1536F1"/>
	</linearGradient>
	<use xlink:href="#SVGID_10_"  style="overflow:visible;fill-rule:evenodd;clip-rule:evenodd;fill:url(#SVGID_11_);"/>
	<clipPath id="SVGID_12_">
		<use xlink:href="#SVGID_10_"  style="overflow:visible;"/>
	</clipPath>
	<linearGradient id="SVGID_13_" gradientUnits="userSpaceOnUse" x1="438.3163" y1="1303.7515" x2="438.3163" y2="663.7064">
		<stop  offset="0" style="stop-color:#E90DCA"/>
		<stop  offset="1" style="stop-color:#1536F1"/>
	</linearGradient>
	<rect x="246.56" y="793.88" class="st3" width="383.5" height="201.17"/>
</g>
<g>
	<defs>
		<path id="SVGID_14_" d="M320.64,1019.96c-9.59-3.38-18.79-7.16-27.54-11.31c-20.03-42.44-35.29-87.08-45.46-132.91l-0.22-0.98
			l0.96-0.3c64.49-20.33,132.22-30.2,199.83-29.16l1.08,0.02v39.11l1.98,0.04c43.68,0.95,87.22,6.75,129.63,17.26l1.1,0.27
			l-0.32,1.09c-10.57,36.61-24.65,72.19-42.02,106.1l-0.53,1.03l-18.85-10.89l0.47-0.93c12.88-25.22,23.86-51.41,32.85-78.26
			l0.73-2.17l-2.25-0.46c-40.64-8.27-82.17-12.09-123.64-11.36l-1.11,0.02v-39.11l-2.07,0.04c-50.69,1.08-101.18,8.5-150.04,22.06
			l-1.92,0.53l0.5,1.93c11.3,43.74,27.48,86.18,48.14,126.35l0.48,0.93L320.64,1019.96z M375.33,1034.01
			c-10.93-1.86-21.57-4.19-31.84-6.96l2.27-1.31l-0.95-1.74c-21.01-38.3-37.78-78.91-49.86-120.89l-0.31-1.09l1.1-0.27
			c36.98-9.17,74.84-14.74,112.89-16.66l1.15-0.06v21.77l-1.04,0.05c-28.28,1.48-56.45,5.04-84.2,10.68l-2.25,0.46l0.73,2.17
			c13.16,39.33,30.62,77.19,51.98,112.75l0.57,0.96L375.33,1034.01z M533.15,1027.05c-10.39,2.8-21.15,5.16-32.21,7.03
			c3.63-6.01,7.15-12.09,10.56-18.24l0.54-0.98L533.15,1027.05z M583.5,1008.67c-9.6,4.55-19.74,8.65-30.35,12.28
			c21.39-41.04,38.09-84.48,49.67-129.31l0.5-1.93l-1.92-0.53c-43.53-12.08-88.38-19.29-133.5-21.48l-1.04-0.05v-21.78l1.15,0.05
			c54.38,2.55,108.33,12.18,160.25,28.54l0.96,0.3l-0.22,0.98C618.81,921.61,603.52,966.23,583.5,1008.67z M345.35,931.3l0.46,1.24
			c13.67,36.63,31.21,71.71,52.23,104.6c8.95,0.95,18.07,1.6,27.32,1.91c-18.87-27.62-35.13-57-48.49-87.67l-1.1-2.52l2.73-0.31
			c39.71-4.49,79.91-4.49,119.62,0l2.73,0.31l-1.1,2.52c-13.36,30.67-29.62,60.06-48.49,87.67c9.25-0.31,18.37-0.96,27.32-1.91
			c21.02-32.89,38.56-67.97,52.23-104.6l0.46-1.24l-1.31-0.22c-60.61-10.18-122.7-10.18-183.31,0L345.35,931.3z"/>
	</defs>
	<linearGradient id="SVGID_15_" gradientUnits="userSpaceOnUse" x1="247.4231" y1="942.1423" x2="629.2094" y2="942.1423">
		<stop  offset="0" style="stop-color:#E90DCA"/>
		<stop  offset="1" style="stop-color:#1536F1"/>
	</linearGradient>
	<use xlink:href="#SVGID_14_"  style="overflow:visible;fill-rule:evenodd;clip-rule:evenodd;fill:url(#SVGID_15_);"/>
	<clipPath id="SVGID_16_">
		<use xlink:href="#SVGID_14_"  style="overflow:visible;"/>
	</clipPath>
	<linearGradient id="SVGID_17_" gradientUnits="userSpaceOnUse" x1="438.3163" y1="1303.752" x2="438.3163" y2="663.7068">
		<stop  offset="0" style="stop-color:#E90DCA"/>
		<stop  offset="1" style="stop-color:#1536F1"/>
	</linearGradient>
	<rect x="247.42" y="844.26" class="st4" width="381.79" height="194.79"/>
</g>
</svg>
