<?xml version="1.0" encoding="utf-8"?>
<!-- Generator: Adobe Illustrator 24.0.1, SVG Export Plug-In . SVG Version: 6.00 Build 0)  -->
<svg version="1.1" id="Layer_1" xmlns="http://www.w3.org/2000/svg" xmlns:xlink="http://www.w3.org/1999/xlink" x="0px" y="0px"
	 viewBox="0 0 250 150" style="enable-background:new 0 0 250 150;" xml:space="preserve">
<style type="text/css">
	.st0{fill:url(#SVGID_1_);}
	.st1{clip-path:url(#SVGID_4_);fill:url(#SVGID_5_);}
	.st2{clip-path:url(#SVGID_8_);fill:url(#SVGID_9_);}
	.st3{clip-path:url(#SVGID_12_);fill:url(#SVGID_13_);}
	.st4{clip-path:url(#SVGID_16_);fill:url(#SVGID_17_);}
</style>
<g>
	<g>
		<g>
			<path d="M87.89,79.07c-1.5,0-2.87-0.25-4.13-0.73c-1.26-0.49-2.35-1.19-3.28-2.09c-0.93-0.9-1.66-1.96-2.17-3.16
				c-0.52-1.2-0.78-2.53-0.78-3.99s0.26-2.79,0.78-3.99c0.52-1.2,1.25-2.25,2.19-3.16s2.04-1.6,3.29-2.09
				c1.25-0.49,2.63-0.73,4.13-0.73c1.59,0,3.04,0.27,4.35,0.82c1.31,0.54,2.42,1.35,3.32,2.42l-2.33,2.19
				c-0.72-0.76-1.51-1.32-2.38-1.7s-1.8-0.57-2.8-0.57c-1.02,0-1.94,0.17-2.78,0.5c-0.84,0.33-1.57,0.8-2.19,1.41
				c-0.62,0.61-1.1,1.33-1.45,2.16c-0.35,0.83-0.53,1.74-0.53,2.74c0,1,0.17,1.91,0.53,2.74c0.35,0.83,0.83,1.55,1.45,2.16
				c0.62,0.61,1.35,1.08,2.19,1.41c0.84,0.33,1.77,0.5,2.78,0.5c1,0,1.93-0.19,2.8-0.57c0.87-0.38,1.66-0.96,2.38-1.73l2.33,2.19
				c-0.9,1.07-2.01,1.88-3.32,2.44C90.95,78.79,89.49,79.07,87.89,79.07z"/>
			<path d="M107.1,63.82c1.2,0,2.26,0.23,3.17,0.69s1.64,1.17,2.19,2.13c0.54,0.96,0.82,2.19,0.82,3.68v8.47h-3.46v-8.03
				c0-1.31-0.3-2.29-0.91-2.94c-0.61-0.65-1.48-0.97-2.6-0.97c-0.81,0-1.53,0.17-2.16,0.5c-0.63,0.33-1.11,0.83-1.45,1.48
				c-0.34,0.66-0.51,1.48-0.51,2.48v7.48h-3.43V58.25h3.43v9.77l-0.72-1.25c0.5-0.94,1.24-1.67,2.23-2.19
				C104.67,64.07,105.81,63.82,107.1,63.82z"/>
			<path d="M124.63,78.99c-1.64,0-3.08-0.33-4.31-0.98s-2.18-1.55-2.85-2.69c-0.67-1.14-1.01-2.44-1.01-3.92
				c0-1.48,0.33-2.78,0.98-3.92c0.65-1.14,1.56-2.03,2.71-2.69c1.15-0.65,2.47-0.98,3.95-0.98c1.44,0,2.72,0.32,3.85,0.96
				c1.13,0.64,2.01,1.53,2.66,2.67c0.65,1.15,0.97,2.5,0.97,4.07c0,0.13,0,0.29-0.01,0.48s-0.02,0.36-0.04,0.51H119.2v-2.3h10.49
				l-1.38,0.72c0.02-0.83-0.15-1.57-0.51-2.23c-0.36-0.65-0.85-1.16-1.48-1.52c-0.63-0.36-1.37-0.54-2.21-0.54
				c-0.83,0-1.57,0.18-2.23,0.54c-0.66,0.36-1.16,0.87-1.51,1.54s-0.53,1.43-0.53,2.3v0.55c0,0.89,0.2,1.67,0.6,2.35
				c0.4,0.68,0.96,1.21,1.7,1.59s1.6,0.57,2.58,0.57c0.83,0,1.58-0.14,2.24-0.42c0.66-0.28,1.25-0.68,1.77-1.22l1.88,2.16
				c-0.68,0.78-1.53,1.37-2.53,1.77C127.07,78.79,125.92,78.99,124.63,78.99z"/>
			<path d="M141.68,78.99c-1.55,0-2.93-0.33-4.14-0.98s-2.16-1.55-2.84-2.69c-0.68-1.14-1.02-2.44-1.02-3.92
				c0-1.5,0.34-2.81,1.02-3.93c0.68-1.13,1.63-2.02,2.84-2.67c1.21-0.65,2.59-0.98,4.14-0.98c1.42,0,2.69,0.3,3.79,0.89
				s1.94,1.45,2.49,2.57l-2.63,1.55c-0.44-0.68-0.98-1.19-1.62-1.54c-0.64-0.34-1.32-0.51-2.06-0.51c-0.85,0-1.62,0.19-2.3,0.57
				c-0.68,0.38-1.22,0.91-1.61,1.61c-0.39,0.69-0.58,1.51-0.58,2.45s0.19,1.76,0.58,2.46s0.92,1.24,1.61,1.62
				c0.68,0.38,1.45,0.57,2.3,0.57c0.74,0,1.43-0.17,2.06-0.51c0.64-0.34,1.18-0.86,1.62-1.56l2.63,1.55
				c-0.55,1.11-1.38,1.96-2.49,2.56S143.1,78.99,141.68,78.99z"/>
			<path d="M151.01,78.79V58.25h3.43v20.54H151.01z M153.81,75.5l0.08-4.35l7.72-7.14h4.15l-6.56,6.56l-1.85,1.55L153.81,75.5z
				 M162.17,78.79l-5.45-6.67l2.19-2.77l7.45,9.44H162.17z"/>
			<path d="M172.53,78.79h-3.6V59.41h14.15v3.05h-10.55V78.79z M172.25,68.36h9.64v2.99h-9.64V68.36z"/>
			<path d="M187.98,61.57c-0.65,0-1.18-0.2-1.59-0.61c-0.42-0.41-0.62-0.9-0.62-1.5c0-0.55,0.21-1.03,0.62-1.44
				c0.42-0.41,0.95-0.61,1.59-0.61c0.65,0,1.18,0.19,1.59,0.57c0.42,0.38,0.62,0.86,0.62,1.45s-0.2,1.09-0.61,1.51
				C189.18,61.37,188.64,61.57,187.98,61.57z M186.26,78.79V64.01h3.43v14.79H186.26z"/>
			<path d="M194.26,78.79V64.01h3.29v4.07l-0.39-1.19c0.42-1,1.12-1.76,2.08-2.28c0.96-0.53,2.13-0.79,3.52-0.79v3.29
				c-0.13-0.02-0.26-0.03-0.39-0.04s-0.25-0.01-0.36-0.01c-1.33,0-2.38,0.38-3.16,1.14c-0.78,0.76-1.16,1.91-1.16,3.46v7.14H194.26z
				"/>
			<path d="M210.46,78.99c-1.25,0-2.45-0.16-3.57-0.48c-1.13-0.32-2.03-0.71-2.71-1.18l1.33-2.63c0.67,0.42,1.46,0.77,2.38,1.04
				c0.92,0.27,1.85,0.4,2.8,0.4c1.07,0,1.85-0.14,2.34-0.43c0.49-0.29,0.73-0.68,0.73-1.18c0-0.41-0.17-0.72-0.5-0.93
				c-0.33-0.21-0.77-0.37-1.3-0.48c-0.54-0.11-1.13-0.21-1.79-0.3c-0.66-0.09-1.31-0.22-1.97-0.37c-0.66-0.16-1.25-0.39-1.79-0.69
				c-0.54-0.3-0.97-0.72-1.3-1.23c-0.33-0.52-0.5-1.21-0.5-2.08c0-0.92,0.27-1.73,0.8-2.42s1.29-1.23,2.26-1.62s2.12-0.58,3.45-0.58
				c0.98,0,1.98,0.12,3,0.35c1.02,0.23,1.88,0.55,2.56,0.96l-1.36,2.63c-0.68-0.41-1.38-0.69-2.1-0.84
				c-0.72-0.16-1.43-0.24-2.13-0.24c-1.03,0-1.81,0.15-2.33,0.46c-0.52,0.3-0.78,0.7-0.78,1.18c0,0.44,0.17,0.78,0.5,1
				c0.33,0.22,0.77,0.39,1.3,0.51c0.54,0.12,1.13,0.23,1.79,0.33c0.65,0.1,1.31,0.23,1.95,0.39c0.65,0.16,1.24,0.38,1.79,0.66
				c0.54,0.29,0.98,0.69,1.32,1.2c0.33,0.52,0.5,1.19,0.5,2.02c0,0.94-0.27,1.75-0.82,2.42c-0.54,0.67-1.31,1.2-2.3,1.58
				C213.03,78.8,211.84,78.99,210.46,78.99z"/>
			<path d="M218.16,66.89v-2.77h9.86v2.77H218.16z M225.69,78.99c-1.63,0-2.88-0.42-3.77-1.26c-0.89-0.84-1.33-2.07-1.33-3.7V60.74
				h3.43v13.18c0,0.7,0.18,1.25,0.55,1.63c0.37,0.39,0.89,0.58,1.55,0.58c0.76,0,1.38-0.2,1.88-0.61l1,2.46
				c-0.42,0.33-0.93,0.58-1.52,0.75C226.9,78.91,226.3,78.99,225.69,78.99z"/>
		</g>
	</g>
	<g>
		<g>
			<path d="M82.16,93.98c-0.53,0-1.02-0.08-1.47-0.24s-0.84-0.39-1.17-0.68c-0.33-0.29-0.58-0.64-0.77-1.04s-0.28-0.83-0.28-1.31
				s0.09-0.91,0.28-1.31s0.44-0.74,0.77-1.04c0.33-0.29,0.72-0.52,1.17-0.68s0.94-0.24,1.47-0.24c0.51,0,0.99,0.08,1.44,0.23
				s0.83,0.39,1.14,0.7l-0.47,0.43c-0.29-0.27-0.61-0.46-0.95-0.58c-0.35-0.12-0.72-0.18-1.13-0.18c-0.42,0-0.81,0.07-1.17,0.2
				c-0.36,0.13-0.68,0.32-0.94,0.56c-0.27,0.24-0.48,0.52-0.63,0.85c-0.15,0.32-0.23,0.68-0.23,1.06s0.08,0.74,0.23,1.06
				c0.15,0.32,0.36,0.6,0.63,0.85c0.27,0.24,0.58,0.43,0.94,0.56c0.36,0.13,0.75,0.2,1.17,0.2c0.4,0,0.78-0.06,1.13-0.18
				c0.35-0.12,0.67-0.32,0.95-0.59l0.47,0.43c-0.31,0.31-0.69,0.55-1.14,0.71S82.67,93.98,82.16,93.98z"/>
			<path d="M86.33,93.93v-6.44h0.74v5.85h3.94v0.59H86.33z"/>
			<path d="M95.32,93.98c-0.53,0-1.02-0.08-1.47-0.24c-0.45-0.16-0.84-0.39-1.18-0.69c-0.33-0.3-0.59-0.64-0.77-1.04
				s-0.28-0.83-0.28-1.3s0.09-0.91,0.28-1.3s0.44-0.74,0.77-1.04c0.33-0.3,0.72-0.53,1.17-0.69s0.94-0.24,1.48-0.24
				c0.53,0,1.02,0.08,1.47,0.24s0.84,0.39,1.17,0.68c0.33,0.29,0.59,0.64,0.77,1.04c0.18,0.4,0.28,0.83,0.28,1.31
				s-0.09,0.91-0.28,1.31c-0.18,0.4-0.44,0.74-0.77,1.04c-0.33,0.29-0.72,0.52-1.17,0.68S95.84,93.98,95.32,93.98z M95.32,93.38
				c0.42,0,0.81-0.07,1.17-0.2c0.36-0.13,0.67-0.32,0.93-0.56c0.26-0.24,0.47-0.52,0.62-0.85c0.15-0.32,0.22-0.68,0.22-1.06
				s-0.07-0.74-0.22-1.06c-0.15-0.32-0.35-0.6-0.62-0.85c-0.26-0.24-0.58-0.43-0.93-0.56c-0.36-0.13-0.75-0.2-1.17-0.2
				s-0.81,0.07-1.18,0.2s-0.68,0.32-0.94,0.56c-0.27,0.24-0.48,0.52-0.62,0.85c-0.15,0.32-0.22,0.68-0.22,1.06
				c0,0.38,0.07,0.73,0.22,1.06c0.15,0.32,0.35,0.61,0.62,0.85c0.27,0.24,0.58,0.43,0.94,0.56S94.89,93.38,95.32,93.38z"/>
			<path d="M103.5,93.98c-0.9,0-1.6-0.24-2.12-0.71c-0.52-0.47-0.77-1.17-0.77-2.1v-3.69h0.74v3.66c0,0.76,0.19,1.32,0.56,1.68
				c0.38,0.36,0.9,0.54,1.59,0.54c0.69,0,1.22-0.18,1.6-0.54c0.38-0.36,0.56-0.92,0.56-1.68v-3.66h0.72v3.69
				c0,0.93-0.26,1.62-0.77,2.1C105.1,93.75,104.4,93.98,103.5,93.98z"/>
			<path d="M108.62,93.93v-6.44h2.86c0.75,0,1.41,0.14,1.97,0.41s1.01,0.65,1.32,1.14c0.31,0.48,0.47,1.04,0.47,1.67
				s-0.16,1.19-0.47,1.67c-0.31,0.48-0.75,0.86-1.32,1.14s-1.22,0.41-1.97,0.41H108.62z M109.37,93.34h2.08
				c0.62,0,1.16-0.11,1.62-0.33c0.46-0.22,0.81-0.53,1.07-0.93c0.25-0.4,0.38-0.85,0.38-1.37c0-0.52-0.13-0.98-0.38-1.37
				c-0.25-0.39-0.61-0.7-1.07-0.92c-0.46-0.22-1-0.33-1.62-0.33h-2.08V93.34z"/>
			<path d="M124.12,93.98c-0.52,0-1.02-0.08-1.5-0.23c-0.48-0.16-0.85-0.36-1.11-0.6l0.29-0.52c0.25,0.22,0.58,0.41,1,0.56
				s0.86,0.22,1.32,0.22c0.44,0,0.8-0.05,1.08-0.15c0.28-0.1,0.48-0.24,0.61-0.41c0.13-0.17,0.2-0.36,0.2-0.57
				c0-0.25-0.08-0.45-0.24-0.61s-0.36-0.27-0.62-0.36s-0.54-0.17-0.84-0.23s-0.62-0.14-0.92-0.22c-0.31-0.08-0.59-0.18-0.85-0.31
				c-0.26-0.13-0.47-0.3-0.62-0.51c-0.16-0.21-0.24-0.49-0.24-0.83c0-0.32,0.09-0.61,0.28-0.88s0.47-0.48,0.85-0.64
				c0.38-0.16,0.87-0.24,1.47-0.24c0.4,0,0.79,0.05,1.18,0.15c0.39,0.1,0.72,0.24,1,0.42l-0.25,0.54c-0.3-0.18-0.62-0.32-0.96-0.41
				c-0.34-0.08-0.66-0.13-0.98-0.13c-0.42,0-0.77,0.05-1.04,0.16c-0.27,0.1-0.48,0.24-0.61,0.42c-0.13,0.17-0.2,0.37-0.2,0.59
				c0,0.25,0.08,0.45,0.24,0.61c0.16,0.15,0.36,0.27,0.62,0.36s0.54,0.16,0.85,0.23s0.61,0.14,0.92,0.22
				c0.3,0.08,0.59,0.18,0.84,0.31c0.26,0.13,0.47,0.29,0.62,0.5c0.16,0.21,0.24,0.48,0.24,0.82c0,0.31-0.09,0.6-0.28,0.87
				s-0.47,0.48-0.86,0.64C125.22,93.9,124.73,93.98,124.12,93.98z"/>
			<path d="M131.19,93.98c-0.9,0-1.6-0.24-2.12-0.71c-0.52-0.47-0.77-1.17-0.77-2.1v-3.69h0.74v3.66c0,0.76,0.19,1.32,0.56,1.68
				c0.38,0.36,0.9,0.54,1.59,0.54c0.69,0,1.22-0.18,1.6-0.54c0.38-0.36,0.56-0.92,0.56-1.68v-3.66h0.72v3.69
				c0,0.93-0.26,1.62-0.77,2.1C132.79,93.75,132.09,93.98,131.19,93.98z"/>
			<path d="M136.32,93.93v-6.44h2.63c0.6,0,1.11,0.09,1.54,0.26s0.76,0.43,0.99,0.75c0.23,0.33,0.35,0.73,0.35,1.19
				c0,0.45-0.12,0.84-0.35,1.17c-0.23,0.33-0.56,0.58-0.99,0.76c-0.43,0.18-0.94,0.27-1.54,0.27h-2.22l0.33-0.32v2.35H136.32z
				 M137.06,91.63l-0.33-0.33h2.2c0.7,0,1.24-0.14,1.6-0.42c0.37-0.28,0.55-0.67,0.55-1.18c0-0.51-0.18-0.91-0.55-1.19
				c-0.36-0.28-0.9-0.42-1.6-0.42h-2.2l0.33-0.32V91.63z"/>
			<path d="M143.53,93.93v-6.44h2.63c0.6,0,1.11,0.09,1.54,0.26s0.76,0.43,0.99,0.75c0.23,0.33,0.35,0.73,0.35,1.19
				c0,0.45-0.12,0.84-0.35,1.17c-0.23,0.33-0.56,0.58-0.99,0.76c-0.43,0.18-0.94,0.27-1.54,0.27h-2.22l0.33-0.32v2.35H143.53z
				 M144.27,91.63l-0.33-0.33h2.2c0.7,0,1.24-0.14,1.6-0.42c0.37-0.28,0.55-0.67,0.55-1.18c0-0.51-0.18-0.91-0.55-1.19
				c-0.36-0.28-0.9-0.42-1.6-0.42h-2.2l0.33-0.32V91.63z"/>
			<path d="M150.74,93.93v-6.44h0.74v5.85h3.94v0.59H150.74z"/>
			<path d="M156.66,93.93v-6.44h0.74v6.44H156.66z"/>
			<path d="M160.43,93.34h4.23v0.59h-4.97v-6.44h4.82v0.59h-4.08V93.34z M160.35,90.37h3.72v0.58h-3.72V90.37z"/>
			<path d="M166.41,93.93v-6.44h2.63c0.6,0,1.11,0.09,1.54,0.26s0.76,0.43,0.99,0.75c0.23,0.33,0.35,0.73,0.35,1.19
				c0,0.45-0.12,0.84-0.35,1.17c-0.23,0.33-0.56,0.58-0.99,0.75s-0.94,0.26-1.54,0.26h-2.22l0.33-0.31v2.35H166.41z M167.15,91.63
				l-0.33-0.32h2.2c0.7,0,1.24-0.14,1.6-0.42c0.37-0.28,0.55-0.68,0.55-1.19c0-0.51-0.18-0.91-0.55-1.19
				c-0.36-0.28-0.9-0.42-1.6-0.42h-2.2l0.33-0.32V91.63z M171.21,93.93l-1.81-2.33h0.8l1.82,2.33H171.21z"/>
			<path d="M180.87,93.98c-0.52,0-1.02-0.08-1.5-0.23s-0.85-0.36-1.11-0.6l0.29-0.52c0.25,0.22,0.58,0.41,1,0.56
				s0.86,0.22,1.32,0.22c0.44,0,0.8-0.05,1.08-0.15c0.28-0.1,0.48-0.24,0.61-0.41c0.13-0.17,0.2-0.36,0.2-0.57
				c0-0.25-0.08-0.45-0.24-0.61c-0.16-0.15-0.36-0.27-0.62-0.36s-0.54-0.17-0.84-0.23s-0.62-0.14-0.92-0.22
				c-0.31-0.08-0.59-0.18-0.85-0.31c-0.26-0.13-0.47-0.3-0.62-0.51c-0.16-0.21-0.24-0.49-0.24-0.83c0-0.32,0.09-0.61,0.28-0.88
				s0.47-0.48,0.85-0.64s0.87-0.24,1.47-0.24c0.39,0,0.79,0.05,1.17,0.15c0.39,0.1,0.72,0.24,1,0.42l-0.25,0.54
				c-0.3-0.18-0.62-0.32-0.96-0.41c-0.34-0.08-0.67-0.13-0.98-0.13c-0.42,0-0.77,0.05-1.04,0.16c-0.27,0.1-0.48,0.24-0.61,0.42
				c-0.13,0.17-0.2,0.37-0.2,0.59c0,0.25,0.08,0.45,0.24,0.61s0.36,0.27,0.62,0.36c0.26,0.09,0.54,0.16,0.85,0.23
				c0.31,0.07,0.61,0.14,0.92,0.22c0.3,0.08,0.59,0.18,0.84,0.31c0.26,0.13,0.46,0.29,0.62,0.5c0.16,0.21,0.24,0.48,0.24,0.82
				c0,0.31-0.09,0.6-0.28,0.87s-0.47,0.48-0.86,0.64C181.97,93.9,181.47,93.98,180.87,93.98z"/>
			<path d="M185.85,93.34h4.23v0.59h-4.97v-6.44h4.82v0.59h-4.08V93.34z M185.77,90.37h3.72v0.58h-3.72V90.37z"/>
			<path d="M194.88,93.98c-0.53,0-1.02-0.08-1.47-0.24c-0.45-0.16-0.84-0.39-1.17-0.68c-0.33-0.29-0.58-0.64-0.77-1.04
				c-0.18-0.4-0.28-0.83-0.28-1.31s0.09-0.91,0.28-1.31c0.18-0.4,0.44-0.74,0.77-1.04c0.33-0.29,0.72-0.52,1.17-0.68
				c0.45-0.16,0.94-0.24,1.47-0.24c0.51,0,0.99,0.08,1.44,0.23c0.45,0.16,0.83,0.39,1.14,0.7l-0.47,0.43
				c-0.29-0.27-0.61-0.46-0.95-0.58c-0.35-0.12-0.72-0.18-1.13-0.18c-0.42,0-0.81,0.07-1.17,0.2s-0.68,0.32-0.94,0.56
				s-0.48,0.52-0.63,0.85c-0.15,0.32-0.23,0.68-0.23,1.06s0.08,0.74,0.23,1.06c0.15,0.32,0.36,0.6,0.63,0.85
				c0.27,0.24,0.58,0.43,0.94,0.56s0.75,0.2,1.17,0.2c0.4,0,0.78-0.06,1.13-0.18c0.35-0.12,0.67-0.32,0.95-0.59l0.47,0.43
				c-0.31,0.31-0.69,0.55-1.14,0.71C195.88,93.9,195.4,93.98,194.88,93.98z"/>
			<path d="M201.88,93.98c-0.9,0-1.6-0.24-2.12-0.71c-0.52-0.47-0.77-1.17-0.77-2.1v-3.69h0.74v3.66c0,0.76,0.19,1.32,0.56,1.68
				c0.38,0.36,0.9,0.54,1.59,0.54c0.69,0,1.22-0.18,1.6-0.54c0.38-0.36,0.56-0.92,0.56-1.68v-3.66h0.72v3.69
				c0,0.93-0.26,1.62-0.77,2.1C203.49,93.75,202.78,93.98,201.88,93.98z"/>
			<path d="M207.01,93.93v-6.44h2.63c0.6,0,1.11,0.09,1.54,0.26s0.76,0.43,0.99,0.75c0.23,0.33,0.35,0.73,0.35,1.19
				c0,0.45-0.12,0.84-0.35,1.17c-0.23,0.33-0.56,0.58-0.99,0.75s-0.94,0.26-1.54,0.26h-2.22l0.33-0.31v2.35H207.01z M207.75,91.63
				l-0.33-0.32h2.2c0.7,0,1.24-0.14,1.6-0.42c0.37-0.28,0.55-0.68,0.55-1.19c0-0.51-0.18-0.91-0.55-1.19
				c-0.36-0.28-0.9-0.42-1.6-0.42h-2.2l0.33-0.32V91.63z M211.81,93.93L210,91.59h0.8l1.82,2.33H211.81z"/>
			<path d="M214.27,93.93v-6.44h0.74v6.44H214.27z"/>
			<path d="M218.67,93.93v-5.85h-2.47v-0.59h5.69v0.59h-2.47v5.85H218.67z"/>
			<path d="M224.75,93.93v-2.39l0.17,0.42l-2.98-4.47h0.79l2.62,3.93h-0.42l2.62-3.93h0.74l-2.98,4.47l0.17-0.42v2.39H224.75z"/>
		</g>
	</g>
	<linearGradient id="SVGID_1_" gradientUnits="userSpaceOnUse" x1="44.9748" y1="72.5681" x2="49.2129" y2="72.5681">
		<stop  offset="0" style="stop-color:#E90DCA"/>
		<stop  offset="1" style="stop-color:#1536F1"/>
	</linearGradient>
	<path class="st0" d="M48.67,72.25c-0.5,0.49-0.62,1.02-0.58,1.67c0.03,0.48,0.02,0.97-0.01,1.45c-0.04,0.55-0.49,0.98-1,0.94
		c-0.55-0.05-0.9-0.36-0.95-0.92c-0.03-0.37-0.03-0.75-0.01-1.12c0.05-0.81-0.04-1.52-0.69-2.16c-0.57-0.56-0.56-1.37-0.19-2.1
		c0.38-0.75,1.01-1.14,1.86-1.17c0.87,0.02,1.52,0.42,1.89,1.21C49.36,70.83,49.28,71.63,48.67,72.25z"/>
	<g>
		<defs>
			<path id="SVGID_2_" d="M48.88,58.85c6.02,0.13,12.02,0.93,17.87,2.38l0.43,0.11l-0.12,0.43c-1.45,5.05-3.4,9.95-5.79,14.62
				l-0.21,0.4l-3.07-1.77l0.19-0.36c1.76-3.45,3.27-7.04,4.5-10.71c-5.56-1.13-11.24-1.65-16.92-1.56l-0.44,0.01v-5.37
				c-6.94,0.15-13.85,1.16-20.54,3.02c1.55,5.99,3.76,11.8,6.59,17.3l0.19,0.36l-3.07,1.77l-0.21-0.4
				c-3.44-6.67-6.01-13.76-7.64-21.09l-0.09-0.38l0.38-0.12c8.9-2.81,18.21-4.16,27.54-4.02l0.42,0.01V58.85z M58.4,81.52
				c-3.12,5.15-6.81,9.94-10.99,14.28l-0.31,0.32l-0.31-0.32c-3.64-3.78-6.92-7.92-9.77-12.33l-0.24-0.38l3.07-1.77l0.22,0.34
				c2.11,3.25,4.46,6.35,7.03,9.25c3.76-4.25,7.05-8.91,9.81-13.88l0.21-0.38l4.65,2.69c3.34-6.09,5.92-12.58,7.65-19.3
				c-5.96-1.65-12.1-2.64-18.28-2.94l-0.41-0.02v-3.55l0.45,0.02c7.5,0.35,14.93,1.68,22.08,3.93l0.38,0.12l-0.09,0.38
				c-2.02,9.11-5.5,17.85-10.29,25.86l-0.22,0.36L58.4,81.52z M31.52,63.95c1.8,5.38,4.19,10.56,7.11,15.43l0.22,0.37l-4.65,2.69
				c3.6,5.94,7.93,11.41,12.89,16.28c4.41-4.33,8.34-9.16,11.68-14.36L59,84.01l3.07,1.77l-0.24,0.38
				c-4.05,6.31-8.91,12.09-14.45,17.16l-0.29,0.27l-0.29-0.27c-6.88-6.3-12.71-13.69-17.25-21.84l-0.21-0.37l4.65-2.69
				c-2.9-5.28-5.2-10.87-6.87-16.66l-0.12-0.43l0.43-0.11c5.1-1.26,10.31-2.03,15.56-2.3l0.45-0.02v3.55l-0.41,0.02
				C39.17,62.68,35.32,63.17,31.52,63.95z M38.91,68.21c2.19,5.01,4.93,9.78,8.18,14.18c3.25-4.4,6-9.16,8.18-14.18
				C49.84,67.6,44.35,67.6,38.91,68.21z M34.46,65.26c8.36-1.4,16.91-1.4,25.27,0l0.51,0.09l-0.18,0.49
				c-2.96,7.94-7.24,15.35-12.64,21.89l-0.33,0.4l-0.33-0.4c-5.4-6.54-9.67-13.94-12.64-21.89l-0.18-0.49L34.46,65.26z"/>
		</defs>
		<linearGradient id="SVGID_3_" gradientUnits="userSpaceOnUse" x1="20.5462" y1="78.5265" x2="73.6415" y2="78.5265">
			<stop  offset="0" style="stop-color:#E90DCA"/>
			<stop  offset="1" style="stop-color:#1536F1"/>
		</linearGradient>
		<use xlink:href="#SVGID_2_"  style="overflow:visible;fill-rule:evenodd;clip-rule:evenodd;fill:url(#SVGID_3_);"/>
		<clipPath id="SVGID_4_">
			<use xlink:href="#SVGID_2_"  style="overflow:visible;"/>
		</clipPath>
		<linearGradient id="SVGID_5_" gradientUnits="userSpaceOnUse" x1="47.0938" y1="136.4479" x2="47.0938" y2="-12.7669">
			<stop  offset="0" style="stop-color:#E90DCA"/>
			<stop  offset="1" style="stop-color:#1536F1"/>
		</linearGradient>
		<rect x="20.55" y="53.33" class="st1" width="53.1" height="50.26"/>
	</g>
	<g>
		<defs>
			<path id="SVGID_6_" d="M39.56,98.59c-11.04-3.25-19.1-13.46-19.1-25.55c0-2.13,0.25-4.2,0.72-6.18c0.84,2.55,1.79,5.07,2.86,7.54
				c0.44,7.52,4.47,14.07,10.41,17.96C36.06,94.51,37.76,96.59,39.56,98.59 M73,66.85c0.47,1.98,0.72,4.05,0.72,6.18
				c0,12.09-8.06,22.3-19.1,25.55c1.8-2,3.5-4.08,5.11-6.23c5.94-3.89,9.97-10.45,10.4-17.97C71.21,71.92,72.16,69.41,73,66.85z
				 M47.09,46.41c6.99,0,13.36,2.7,18.11,7.11c-2.69-0.56-5.4-0.99-8.13-1.3c-3.02-1.45-6.41-2.26-9.98-2.26
				c-3.58,0-6.97,0.81-9.99,2.27c-2.73,0.31-5.44,0.74-8.12,1.3C33.74,49.11,40.1,46.41,47.09,46.41z"/>
		</defs>
		<linearGradient id="SVGID_7_" gradientUnits="userSpaceOnUse" x1="20.4645" y1="72.4977" x2="73.7232" y2="72.4977">
			<stop  offset="0" style="stop-color:#E90DCA"/>
			<stop  offset="1" style="stop-color:#1536F1"/>
		</linearGradient>
		<use xlink:href="#SVGID_6_"  style="overflow:visible;fill-rule:evenodd;clip-rule:evenodd;fill:url(#SVGID_7_);"/>
		<clipPath id="SVGID_8_">
			<use xlink:href="#SVGID_6_"  style="overflow:visible;"/>
		</clipPath>
		<linearGradient id="SVGID_9_" gradientUnits="userSpaceOnUse" x1="47.0938" y1="136.4479" x2="47.0938" y2="-12.7673">
			<stop  offset="0" style="stop-color:#E90DCA"/>
			<stop  offset="1" style="stop-color:#1536F1"/>
		</linearGradient>
		<rect x="20.46" y="46.41" class="st2" width="53.26" height="52.18"/>
	</g>
	<g>
		<defs>
			<path id="SVGID_10_" d="M23.71,74.32c-1.05-0.66-2.04-1.35-2.95-2.09c0.04-1.45,0.21-2.9,0.49-4.32
				C21.98,70.07,22.81,72.21,23.71,74.32 M73.43,72.23c-0.91,0.74-1.9,1.44-2.96,2.09c0.9-2.11,1.73-4.25,2.47-6.42
				C73.22,69.33,73.39,70.77,73.43,72.23z M57.15,51.94c2.38,0.27,4.75,0.64,7.1,1.1c-4.78-4.1-10.83-6.35-17.16-6.35
				c-6.33,0-12.38,2.25-17.16,6.35c2.35-0.46,4.71-0.83,7.09-1.1c3.15-1.51,6.58-2.27,10.07-2.27
				C50.58,49.67,54.01,50.44,57.15,51.94z"/>
		</defs>
		<linearGradient id="SVGID_11_" gradientUnits="userSpaceOnUse" x1="20.7555" y1="60.5042" x2="73.4322" y2="60.5042">
			<stop  offset="0" style="stop-color:#E90DCA"/>
			<stop  offset="1" style="stop-color:#1536F1"/>
		</linearGradient>
		<use xlink:href="#SVGID_10_"  style="overflow:visible;fill-rule:evenodd;clip-rule:evenodd;fill:url(#SVGID_11_);"/>
		<clipPath id="SVGID_12_">
			<use xlink:href="#SVGID_10_"  style="overflow:visible;"/>
		</clipPath>
		<linearGradient id="SVGID_13_" gradientUnits="userSpaceOnUse" x1="47.0938" y1="116.7222" x2="47.0938" y2="28.808">
			<stop  offset="0" style="stop-color:#E90DCA"/>
			<stop  offset="1" style="stop-color:#1536F1"/>
		</linearGradient>
		<rect x="20.76" y="46.69" class="st3" width="52.68" height="27.63"/>
	</g>
	<g>
		<defs>
			<path id="SVGID_14_" d="M30.93,77.74c-1.32-0.46-2.58-0.98-3.78-1.55c-2.75-5.83-4.85-11.96-6.24-18.26l-0.03-0.13l0.13-0.04
				c8.86-2.79,18.16-4.15,27.45-4l0.15,0v5.37l0.27,0.01c6,0.13,11.98,0.93,17.8,2.37l0.15,0.04l-0.04,0.15
				c-1.45,5.03-3.39,9.92-5.77,14.57l-0.07,0.14l-2.59-1.5l0.06-0.13c1.77-3.46,3.28-7.06,4.51-10.75l0.1-0.3l-0.31-0.06
				c-5.58-1.14-11.29-1.66-16.98-1.56l-0.15,0v-5.37l-0.28,0.01c-6.96,0.15-13.9,1.17-20.61,3.03l-0.26,0.07l0.07,0.26
				c1.55,6.01,3.77,11.84,6.61,17.36l0.07,0.13L30.93,77.74z M38.44,79.67c-1.5-0.26-2.96-0.58-4.37-0.96l0.31-0.18l-0.13-0.24
				c-2.89-5.26-5.19-10.84-6.85-16.61l-0.04-0.15l0.15-0.04c5.08-1.26,10.28-2.03,15.51-2.29l0.16-0.01v2.99l-0.14,0.01
				c-3.88,0.2-7.75,0.69-11.57,1.47l-0.31,0.06l0.1,0.3c1.81,5.4,4.21,10.6,7.14,15.49l0.08,0.13L38.44,79.67z M60.12,78.72
				c-1.43,0.39-2.9,0.71-4.42,0.97c0.5-0.83,0.98-1.66,1.45-2.51l0.07-0.13L60.12,78.72z M67.04,76.19
				c-1.32,0.62-2.71,1.19-4.17,1.69c2.94-5.64,5.23-11.6,6.82-17.76l0.07-0.26l-0.26-0.07c-5.98-1.66-12.14-2.65-18.34-2.95
				l-0.14-0.01v-2.99l0.16,0.01c7.47,0.35,14.88,1.67,22.01,3.92l0.13,0.04l-0.03,0.13C71.89,64.23,69.79,70.36,67.04,76.19z
				 M34.32,65.56l0.06,0.17c1.88,5.03,4.29,9.85,7.17,14.37c1.23,0.13,2.48,0.22,3.75,0.26c-2.59-3.79-4.83-7.83-6.66-12.04
				l-0.15-0.35l0.37-0.04c5.46-0.62,10.98-0.62,16.43,0l0.37,0.04l-0.15,0.35c-1.84,4.21-4.07,8.25-6.66,12.04
				c1.27-0.04,2.52-0.13,3.75-0.26c2.89-4.52,5.3-9.34,7.17-14.37l0.06-0.17l-0.18-0.03c-8.32-1.4-16.85-1.4-25.18,0L34.32,65.56z"
				/>
		</defs>
		<linearGradient id="SVGID_15_" gradientUnits="userSpaceOnUse" x1="20.8735" y1="67.0529" x2="73.3142" y2="67.0529">
			<stop  offset="0" style="stop-color:#E90DCA"/>
			<stop  offset="1" style="stop-color:#1536F1"/>
		</linearGradient>
		<use xlink:href="#SVGID_14_"  style="overflow:visible;fill-rule:evenodd;clip-rule:evenodd;fill:url(#SVGID_15_);"/>
		<clipPath id="SVGID_16_">
			<use xlink:href="#SVGID_14_"  style="overflow:visible;"/>
		</clipPath>
		<linearGradient id="SVGID_17_" gradientUnits="userSpaceOnUse" x1="47.0938" y1="116.7222" x2="47.0938" y2="28.808">
			<stop  offset="0" style="stop-color:#E90DCA"/>
			<stop  offset="1" style="stop-color:#1536F1"/>
		</linearGradient>
		<rect x="20.87" y="53.61" class="st4" width="52.44" height="26.76"/>
	</g>
</g>
</svg>
