<?xml version="1.0" encoding="utf-8"?>
<!-- Generator: Adobe Illustrator 24.0.1, SVG Export Plug-In . SVG Version: 6.00 Build 0)  -->
<svg version="1.1" id="Layer_1" xmlns="http://www.w3.org/2000/svg" xmlns:xlink="http://www.w3.org/1999/xlink" x="0px" y="0px"
	 viewBox="0 0 2000 2000" style="enable-background:new 0 0 2000 2000;" xml:space="preserve">
<style type="text/css">
	.st0{fill:url(#SVGID_1_);}
	.st1{clip-path:url(#SVGID_4_);fill:url(#SVGID_5_);}
	.st2{clip-path:url(#SVGID_8_);fill:url(#SVGID_9_);}
	.st3{clip-path:url(#SVGID_12_);fill:url(#SVGID_13_);}
	.st4{clip-path:url(#SVGID_16_);fill:url(#SVGID_17_);}
</style>
<g>
	<linearGradient id="SVGID_1_" gradientUnits="userSpaceOnUse" x1="966.0398" y1="961.0256" x2="1033.9603" y2="961.0256">
		<stop  offset="0" style="stop-color:#E90DCA"/>
		<stop  offset="1" style="stop-color:#1536F1"/>
	</linearGradient>
	<path class="st0" d="M1025.23,955.85c-7.93,7.89-9.94,16.36-9.36,26.69c0.44,7.74,0.37,15.56-0.13,23.29
		c-0.57,8.83-7.89,15.74-16,15.05c-8.78-0.75-14.41-5.74-15.26-14.77c-0.55-5.95-0.52-12.02-0.17-18c0.76-13-0.66-24.28-11.05-34.59
		c-9.12-9.05-8.98-21.98-3.08-33.7c6.05-12.05,16.14-18.32,29.88-18.7c13.92,0.33,24.3,6.75,30.25,19.36
		C1036.3,933.18,1035.12,946.01,1025.23,955.85z"/>
	<g>
		<defs>
			<path id="SVGID_2_" d="M1028.62,741.24c96.5,2.11,192.63,14.9,286.33,38.13l6.93,1.72l-1.98,6.86
				c-23.31,80.89-54.43,159.44-92.82,234.36l-3.3,6.44l-49.24-28.43l2.97-5.82c28.23-55.34,52.33-112.76,72.05-171.67
				c-89.17-18.14-180.21-26.5-271.2-24.93l-7,0.12v-86.09c-111.25,2.38-221.96,18.64-329.17,48.41
				c24.8,95.99,60.28,189.06,105.63,277.22l3,5.83l-49.25,28.44l-3.31-6.41c-55.17-106.85-96.35-220.58-122.36-337.99l-1.37-6.15
				l6.01-1.9c142.6-44.99,291.8-66.73,441.3-64.39l6.77,0.11V741.24z M1181.14,1104.55c-50.08,82.52-109.22,159.37-176.19,228.9
				l-4.95,5.14l-4.95-5.14c-58.4-60.63-110.87-126.86-156.56-197.56l-3.93-6.07l49.24-28.43l3.55,5.48
				c33.8,52.12,71.48,101.7,112.64,148.23c60.29-68.16,113.05-142.82,157.18-222.4l3.39-6.12l74.56,43.04
				c53.57-97.53,94.83-201.54,122.66-309.28c-95.53-26.52-193.87-42.33-292.9-47.13l-6.54-0.32v-56.87l7.2,0.34
				c120.12,5.65,239.21,26.85,353.89,63.02l6.01,1.9l-1.37,6.15c-32.34,145.99-88.11,286.07-164.89,414.37l-3.48,5.81
				L1181.14,1104.55z M750.43,822.83c28.88,86.29,67.16,169.31,114.01,247.33l3.6,6l-74.55,43.04
				c57.68,95.16,127.12,182.9,206.51,260.87c70.73-69.47,133.59-146.73,187.27-230.09l3.55-5.51l49.25,28.44l-3.89,6.07
				c-64.95,101.2-142.86,193.73-231.53,274.96l-4.65,4.26l-4.65-4.26c-110.26-101.01-203.68-219.34-276.41-349.99l-3.29-5.92
				l74.59-43.06c-46.42-84.63-83.41-174.27-110.14-267.03l-1.98-6.86l6.93-1.72c81.71-20.26,165.3-32.59,249.37-36.8l7.22-0.36
				v56.85l-6.52,0.34C873.08,802.61,811.31,810.45,750.43,822.83z M868.84,891.2c35.02,80.37,79.07,156.66,131.16,227.18
				c52.09-70.52,96.14-146.8,131.16-227.18C1044.05,881.34,955.95,881.34,868.84,891.2z M797.49,843.88
				c133.96-22.49,271.05-22.49,405.01,0l8.22,1.38l-2.92,7.81c-47.5,127.26-116.04,245.98-202.5,350.75l-5.31,6.43l-5.31-6.43
				c-86.46-104.77-155-223.49-202.5-350.75l-2.92-7.81L797.49,843.88z"/>
		</defs>
		<linearGradient id="SVGID_3_" gradientUnits="userSpaceOnUse" x1="574.5399" y1="1056.5162" x2="1425.4601" y2="1056.5162">
			<stop  offset="0" style="stop-color:#E90DCA"/>
			<stop  offset="1" style="stop-color:#1536F1"/>
		</linearGradient>
		<use xlink:href="#SVGID_2_"  style="overflow:visible;fill-rule:evenodd;clip-rule:evenodd;fill:url(#SVGID_3_);"/>
		<clipPath id="SVGID_4_">
			<use xlink:href="#SVGID_2_"  style="overflow:visible;"/>
		</clipPath>
		<linearGradient id="SVGID_5_" gradientUnits="userSpaceOnUse" x1="1000" y1="1984.7804" x2="1000" y2="-406.5774">
			<stop  offset="0" style="stop-color:#E90DCA"/>
			<stop  offset="1" style="stop-color:#1536F1"/>
		</linearGradient>
		<rect x="574.54" y="652.66" class="st1" width="850.92" height="805.54"/>
	</g>
	<g>
		<defs>
			<path id="SVGID_6_" d="M879.29,1377.99c-176.91-52.08-306.06-215.66-306.06-409.42c0-34.11,4.03-67.28,11.59-99.07
				c13.44,40.94,28.72,81.27,45.81,120.83c6.99,120.5,71.63,225.51,166.76,287.89C823.16,1312.69,850.49,1345.99,879.29,1377.99
				 M1415.18,869.47c7.57,31.8,11.59,64.98,11.59,99.1c0,193.76-129.14,357.34-306.04,409.42c28.8-32.01,56.15-65.32,81.94-99.81
				c95.12-62.4,159.75-167.43,166.71-287.95C1386.46,950.69,1401.74,910.39,1415.18,869.47z M1000,541.8
				c112.08,0,214.05,43.23,290.2,113.9c-43.06-8.96-86.52-15.93-130.23-20.88c-48.42-23.25-102.67-36.28-159.98-36.28
				c-57.34,0-111.64,13.05-160.09,36.33c-43.67,4.95-87.12,11.9-130.15,20.85C785.91,585.04,887.9,541.8,1000,541.8z"/>
		</defs>
		<linearGradient id="SVGID_7_" gradientUnits="userSpaceOnUse" x1="573.231" y1="959.897" x2="1426.769" y2="959.897">
			<stop  offset="0" style="stop-color:#E90DCA"/>
			<stop  offset="1" style="stop-color:#1536F1"/>
		</linearGradient>
		<use xlink:href="#SVGID_6_"  style="overflow:visible;fill-rule:evenodd;clip-rule:evenodd;fill:url(#SVGID_7_);"/>
		<clipPath id="SVGID_8_">
			<use xlink:href="#SVGID_6_"  style="overflow:visible;"/>
		</clipPath>
		<linearGradient id="SVGID_9_" gradientUnits="userSpaceOnUse" x1="1000" y1="1984.7805" x2="1000" y2="-406.5835">
			<stop  offset="0" style="stop-color:#E90DCA"/>
			<stop  offset="1" style="stop-color:#1536F1"/>
		</linearGradient>
		<rect x="573.23" y="541.8" class="st2" width="853.54" height="836.19"/>
	</g>
	<g>
		<defs>
			<path id="SVGID_10_" d="M625.22,989.07c-16.88-10.5-32.71-21.69-47.33-33.53c0.71-23.26,3.33-46.42,7.84-69.25
				C597.57,921.05,610.75,955.34,625.22,989.07 M1422.11,955.55c-14.64,11.85-30.48,23.05-47.39,33.56
				c14.49-33.76,27.69-68.07,39.54-102.85C1418.78,909.1,1421.4,932.28,1422.11,955.55z M1161.23,630.47
				c38.12,4.33,76.07,10.2,113.72,17.59c-76.58-65.78-173.53-101.8-274.95-101.8c-101.44,0-198.41,36.02-274.99,101.83
				c37.63-7.38,75.55-13.24,113.65-17.57c50.46-24.13,105.41-36.45,161.34-36.45C1055.89,594.08,1110.8,606.38,1161.23,630.47z"/>
		</defs>
		<linearGradient id="SVGID_11_" gradientUnits="userSpaceOnUse" x1="577.894" y1="767.686" x2="1422.1061" y2="767.686">
			<stop  offset="0" style="stop-color:#E90DCA"/>
			<stop  offset="1" style="stop-color:#1536F1"/>
		</linearGradient>
		<use xlink:href="#SVGID_10_"  style="overflow:visible;fill-rule:evenodd;clip-rule:evenodd;fill:url(#SVGID_11_);"/>
		<clipPath id="SVGID_12_">
			<use xlink:href="#SVGID_10_"  style="overflow:visible;"/>
		</clipPath>
		<linearGradient id="SVGID_13_" gradientUnits="userSpaceOnUse" x1="1000.0001" y1="1668.651" x2="1000.0001" y2="259.7135">
			<stop  offset="0" style="stop-color:#E90DCA"/>
			<stop  offset="1" style="stop-color:#1536F1"/>
		</linearGradient>
		<rect x="577.89" y="546.26" class="st3" width="844.21" height="442.84"/>
	</g>
	<g>
		<defs>
			<path id="SVGID_14_" d="M740.96,1043.94c-21.11-7.45-41.36-15.77-60.63-24.9c-44.1-93.42-77.68-191.68-100.07-292.57l-0.48-2.16
				l2.11-0.66c141.97-44.74,291.06-66.47,439.89-64.18l2.37,0.04v86.1l4.37,0.1c96.15,2.1,192,14.86,285.35,38l2.43,0.6l-0.69,2.41
				c-23.26,80.59-54.26,158.91-92.5,233.56l-1.16,2.26l-41.5-23.96l1.04-2.04c28.36-55.52,52.52-113.16,72.31-172.28l1.6-4.79
				l-4.95-1.01c-89.46-18.19-180.89-26.61-272.17-25.02l-2.45,0.04v-86.1l-4.56,0.1c-111.58,2.38-222.73,18.72-330.27,48.57
				l-4.22,1.17l1.1,4.25c24.88,96.29,60.49,189.71,105.98,278.14l1.05,2.05L740.96,1043.94z M861.34,1074.87
				c-24.07-4.09-47.47-9.22-70.09-15.33l5-2.89l-2.1-3.83c-46.25-84.32-83.16-173.7-109.76-266.12l-0.69-2.41l2.43-0.6
				c81.41-20.19,164.75-32.46,248.52-36.67l2.53-0.13v47.92l-2.29,0.12c-62.25,3.25-124.26,11.1-185.35,23.52l-4.95,1.01l1.6,4.79
				c28.97,86.59,67.42,169.93,114.42,248.21l1.26,2.11L861.34,1074.87z M1208.75,1059.55c-22.87,6.17-46.55,11.35-70.91,15.47
				c7.99-13.24,15.75-26.62,23.25-40.15l1.19-2.15L1208.75,1059.55z M1319.58,1019.08c-21.14,10.01-43.46,19.05-66.8,27.02
				c47.1-90.35,83.85-185.98,109.34-284.64l1.1-4.25l-4.22-1.17c-95.83-26.6-194.54-42.47-293.88-47.29l-2.3-0.11V660.7l2.53,0.12
				c119.7,5.62,238.47,26.81,352.76,62.82l2.11,0.66l-0.48,2.16C1397.33,827.45,1363.66,925.67,1319.58,1019.08z M795.35,848.77
				l1.02,2.74c30.1,80.63,68.71,157.86,114.98,230.26c19.71,2.09,39.77,3.51,60.14,4.2c-41.54-60.79-77.33-125.48-106.75-192.99
				l-2.41-5.54l6.01-0.68c87.42-9.89,175.9-9.89,263.32,0l6.01,0.68l-2.41,5.54c-29.41,67.51-65.21,132.2-106.75,192.99
				c20.37-0.69,40.43-2.11,60.14-4.2c46.28-72.4,84.88-149.63,114.98-230.26l1.02-2.74l-2.89-0.48
				c-133.42-22.41-270.11-22.41-403.53,0L795.35,848.77z"/>
		</defs>
		<linearGradient id="SVGID_15_" gradientUnits="userSpaceOnUse" x1="579.7852" y1="872.6374" x2="1420.2148" y2="872.6374">
			<stop  offset="0" style="stop-color:#E90DCA"/>
			<stop  offset="1" style="stop-color:#1536F1"/>
		</linearGradient>
		<use xlink:href="#SVGID_14_"  style="overflow:visible;fill-rule:evenodd;clip-rule:evenodd;fill:url(#SVGID_15_);"/>
		<clipPath id="SVGID_16_">
			<use xlink:href="#SVGID_14_"  style="overflow:visible;"/>
		</clipPath>
		<linearGradient id="SVGID_17_" gradientUnits="userSpaceOnUse" x1="1000.0001" y1="1668.6522" x2="1000.0001" y2="259.7146">
			<stop  offset="0" style="stop-color:#E90DCA"/>
			<stop  offset="1" style="stop-color:#1536F1"/>
		</linearGradient>
		<rect x="579.79" y="657.18" class="st4" width="840.43" height="428.79"/>
	</g>
</g>
</svg>
